<mxfile host="app.diagrams.net" modified="2024-03-16T15:01:36.494Z" agent="Mozilla/5.0 (Macintosh; Intel Mac OS X 10_15_7) AppleWebKit/537.36 (KHTML, like Gecko) Chrome/121.0.0.0 Safari/537.36" etag="dzcSVbNY6dvR2gcJ9FsC" version="24.0.7" type="github">
  <diagram name="Page-1" id="wHLuE4EOe7YljvPdW_S2">
    <mxGraphModel dx="1312" dy="3173" grid="1" gridSize="10" guides="1" tooltips="1" connect="1" arrows="1" fold="1" page="1" pageScale="1" pageWidth="827" pageHeight="1169" math="0" shadow="0">
      <root>
        <mxCell id="0" />
        <mxCell id="1" parent="0" />
        <mxCell id="fZ9J3yrMx1HM2v-R41V--2" value="" style="rounded=1;whiteSpace=wrap;html=1;" vertex="1" parent="1">
          <mxGeometry x="140" y="-1170" width="390" height="300" as="geometry" />
        </mxCell>
      </root>
    </mxGraphModel>
  </diagram>
</mxfile>
